<svg width="25" height="24" viewBox="0 0 25 24" fill="none" xmlns="http://www.w3.org/2000/svg">
<path d="M10.1691 9.46743V8.54277C9.84821 8.49719 9.52445 8.47375 9.20042 8.47217C5.23648 8.47217 2.01147 11.6977 2.01147 15.6616C2.01147 18.0932 3.22671 20.2457 5.08052 21.5474C3.8392 20.2199 3.149 18.4701 3.15005 16.6527C3.15005 12.7451 6.28338 9.55858 10.1691 9.46743Z" fill="#666666"/>
<path d="M10.3388 19.9358C12.1075 19.9358 13.5501 18.5288 13.6159 16.7753L13.622 1.12264H16.4816C16.4205 0.795718 16.3897 0.46405 16.3894 0.131592H12.4837L12.4771 15.7848C12.412 17.5377 10.9686 18.9442 9.20044 18.9442C8.66962 18.9445 8.14669 18.8151 7.67725 18.5672C8.29237 19.4255 9.2829 19.9347 10.3388 19.9358ZM21.8231 6.43591V5.56604C20.7722 5.5671 19.7437 5.26125 18.8641 4.68643C19.6355 5.57447 20.6737 6.18828 21.8236 6.43591" fill="#666666"/>
<path d="M16.3889 15.6613V7.72396C17.9719 8.86254 19.8732 9.47371 21.8229 9.47134V6.43602C20.6732 6.18812 19.635 5.57405 18.8639 4.68574C17.616 3.87409 16.7548 2.58667 16.4811 1.12354H13.6218L13.6157 16.7762C13.5501 18.5291 12.1073 19.9361 10.3386 19.9361C9.28297 19.9351 8.29218 19.4256 7.67732 18.5678C6.59644 18.0012 5.91861 16.8821 5.91729 15.6616C5.9194 13.8491 7.38807 12.3805 9.20052 12.3784C9.53824 12.3784 9.86253 12.4337 10.1692 12.5304V9.46765C6.28347 9.5588 3.15015 12.7453 3.15015 16.6529C3.15015 18.5425 3.88435 20.2628 5.08062 21.5476C6.28663 22.3966 7.72579 22.8516 9.20052 22.8503C13.1647 22.8503 16.3889 19.6253 16.3889 15.6613Z" fill="white"/>
</svg>
